<svg viewBox="0 0 100 100" xmlns="http://www.w3.org/2000/svg">
  <defs>
    <radialGradient id="bombGrad" cx="50%" cy="50%" r="50%">
      <stop offset="0%" stop-color="#ff8a80"/>
      <stop offset="100%" stop-color="#e53935"/>
    </radialGradient>
    <radialGradient id="cloverGrad" cx="50%" cy="50%" r="50%">
      <stop offset="0%" stop-color="#b9f6ca"/>
      <stop offset="100%" stop-color="#43a047"/>
    </radialGradient>
  </defs>
  <g stroke="#666" stroke-width="2" fill="none">
    <rect x="5" y="5" width="90" height="90" rx="8"/>
    <line x1="50" y1="5" x2="50" y2="95"/>
    <line x1="5" y1="50" x2="95" y2="50"/>
  </g>
  <g stroke="#fff" stroke-width="2" stroke-linecap="round" fill="url(#bombGrad)">
    <circle cx="25" cy="25" r="10"/>
    <circle cx="75" cy="25" r="10"/>
    <circle cx="25" cy="75" r="10"/>
    <line x1="25" y1="15" x2="25" y2="8"/>
    <line x1="75" y1="15" x2="75" y2="8"/>
    <line x1="25" y1="65" x2="25" y2="58"/>
  </g>
  <g fill="#ffeb3b">
    <circle cx="25" cy="7" r="2"/>
    <circle cx="75" cy="7" r="2"/>
    <circle cx="25" cy="57" r="2"/>
  </g>
  <g fill="url(#cloverGrad)">
    <circle cx="75" cy="70" r="6"/>
    <circle cx="85" cy="70" r="6"/>
    <circle cx="75" cy="80" r="6"/>
    <circle cx="85" cy="80" r="6"/>
    <rect x="79" y="80" width="2" height="10" fill="#43a047"/>
  </g>
</svg>
